# xmcd
#
# Track frame offsets: 
#        150
#        13403
#        28587
#        42235
#        60483
#        85605
#        104624
#        124302
#        146097
#        158303
#        176125
#        190784
#        208963
#        223760
#        234031
#        248883
#        271542
#        287310
#        305540
#
# Disc length: 4367 seconds
#
# Revision: 1
# Processed by: cddbd v1.5.2PL0 Copyright (c) Steve Scherf et al.
# Submitted via: ExactAudioCopy v0.99pb4
#
DISCID=07110d13
DTITLE=Michel Jonasz - Michel Jonasz CD 1
DYEAR=2006
DGENRE=Pop
TTITLE0=Les vacances au bord de la mer
TTITLE1=Super nana
TTITLE2=La boîte de jazz
TTITLE3=Soul music airlines
TTITLE4=Groove baby groove
TTITLE5=Lune
TTITLE6=Je voulais te dire que je t'attends
TTITLE7=La FM qui s'est spécialisée funky
TTITLE8=Le boléro
TTITLE9=Lucille
TTITLE10=Dites-moi
TTITLE11=Minuit sonne
TTITLE12=Les wagonnets
TTITLE13=J't'aimais tellement fort que j't'aime encore
TTITLE14=Les fourmis rouges
TTITLE15=Unis vers l'uni
TTITLE16=Joueurs de blues
TTITLE17=Guigui
TTITLE18=Je t'aime
EXTD=
EXTT0=
EXTT1=
EXTT2=
EXTT3=
EXTT4=
EXTT5=
EXTT6=
EXTT7=
EXTT8=
EXTT9=
EXTT10=
EXTT11=
EXTT12=
EXTT13=
EXTT14=
EXTT15=
EXTT16=
EXTT17=
EXTT18=
PLAYORDER=
